<?xml version="1.0" encoding="UTF-8" standalone="no"?>
<svg
   id="svg1"
   viewBox="0 0 960 475.1"
   version="1.1"
   sodipodi:docname="hesafin-logo.svg"
   inkscape:version="1.3.2 (091e20e, 2023-11-25, custom)"
   inkscape:export-filename="hesafin-logo.png"
   inkscape:export-xdpi="96"
   inkscape:export-ydpi="96"
   xmlns:inkscape="http://www.inkscape.org/namespaces/inkscape"
   xmlns:sodipodi="http://sodipodi.sourceforge.net/DTD/sodipodi-0.dtd"
   xmlns="http://www.w3.org/2000/svg"
   xmlns:svg="http://www.w3.org/2000/svg">
  <sodipodi:namedview
     id="namedview17"
     pagecolor="#ffffff"
     bordercolor="#000000"
     borderopacity="0.25"
     inkscape:showpageshadow="2"
     inkscape:pageopacity="0.0"
     inkscape:pagecheckerboard="0"
     inkscape:deskcolor="#d1d1d1"
     inkscape:zoom="1.196875"
     inkscape:cx="480"
     inkscape:cy="237.70235"
     inkscape:window-width="1920"
     inkscape:window-height="1009"
     inkscape:window-x="-8"
     inkscape:window-y="-8"
     inkscape:window-maximized="1"
     inkscape:current-layer="svg1" />
  <defs
     id="defs1">
    <style
       id="style1">
      .cls-1 {
        fill: #fff;
      }

      .cls-2 {
        isolation: isolate;
      }

      .cls-3 {
        fill: #1cabe2;
      }
    </style>
  </defs>
  <path
     id="path8"
     class="cls-1"
     d="M324.41,329.67l-89.44,51.09c-13.06,7.46-29.11,7.41-42.13-.12l-92.01-53.25c-13.32-7.71-21.49-21.9-21.45-37.24l.29-102.34c.05-17.25,9.33-33.16,24.35-41.74l91.37-52.2c11.98-6.84,26.71-6.8,38.65.11l91.23,52.8c14.87,8.61,24.01,24.47,23.96,41.6l-.28,99.22c-.05,17.38-9.4,33.41-24.54,42.06h0Z" />
  <path
     id="path29"
     class="cls-3"
     d="M319.93,316.37l-91.1,52.41c-9.43,5.43-21.03,5.38-30.42-.11l-90.24-52.76c-9.56-5.59-15.43-15.88-15.39-27l.36-103.13c.04-12,6.45-23.07,16.82-29.04l88.79-51.08c9.79-5.63,21.82-5.59,31.57.11l89.25,52.18c9.82,5.74,15.85,16.31,15.81,27.72l-.36,104.65c-.04,10.76-5.79,20.68-15.08,26.03h0Z"
     style="fill:#55c9f4;fill-opacity:1" />
  <path
     id="text33"
     class="cls-1"
     d="M455.44,289.42h-10.22c-5.68,0-10.29-4.61-10.29-10.29h0v-28.13c0-4.47-.93-7.9-2.8-10.29-1.82-2.39-4.45-3.58-7.88-3.58-3.65,0-6.6,1.35-8.85,4.04-2.26,2.69-3.39,6.1-3.39,10.22v38.02h-20.57v-98.7h11.01c5.28,0,9.56,4.28,9.56,9.56h0v30.8h.26c2.13-2.91,5.12-5.3,8.98-7.16,3.86-1.87,7.7-2.8,11.52-2.8,7.12,0,12.67,2.24,16.67,6.71,3.99,4.47,5.99,11.18,5.99,20.12v41.47ZM530.31,261.94h-43.49c.3,4.3,1.78,7.73,4.43,10.29,2.69,2.52,6.21,3.78,10.55,3.78,2.65,0,5.06-.65,7.23-1.95.41-.24.8-.5,1.19-.78,3.1-2.25,7.45-3.53,10.8-1.63l9.04,5.14c-3.82,4.95-8.09,8.57-12.83,10.87-4.73,2.26-9.98,3.39-15.76,3.39-11.02,0-19.62-2.97-25.78-8.92-6.16-5.99-9.24-14.32-9.24-25s3.21-19.84,9.64-26.3c6.42-6.47,14.32-9.7,23.7-9.7s17.23,2.89,22.53,8.66c5.34,5.77,8.01,14.45,8.01,26.04v6.12ZM511.23,248.92c0-4.56-.98-7.96-2.93-10.22-1.91-2.3-4.49-3.45-7.75-3.45-3.91,0-7.07,1.3-9.51,3.91-2.39,2.6-3.84,5.86-4.36,9.77h24.54ZM538.51,280.89l4.42-5.69c2.92-3.76,7.99-3.95,12.1-1.57.87.51,1.73.93,2.56,1.27,2.86,1.17,5.79,1.76,8.79,1.76s5.27-.5,6.84-1.5c1.61-1.04,2.41-2.56,2.41-4.56,0-1.52-.76-2.8-2.28-3.84s-3.97-1.78-7.36-2.21c-8.85-1.3-15.17-3.73-18.95-7.29-3.78-3.56-5.66-8.2-5.66-13.93,0-6.29,2.3-11.57,6.9-15.82,4.64-4.25,10.92-6.38,18.82-6.38,4.69,0,9.11.65,13.28,1.95,4.17,1.3,7.73,3.28,10.68,5.92l-5.9,7.05c-2.24,2.68-6.29,3.05-9.43,1.51-.63-.31-1.25-.58-1.86-.82-2.21-.91-4.54-1.37-6.97-1.37-2.73,0-4.73.5-5.99,1.5-1.22.95-1.82,2.32-1.82,4.1,0,1.52.78,2.8,2.34,3.84s4.32,1.78,8.27,2.21c7.81.91,13.74,3.13,17.77,6.64,4.08,3.47,6.12,8.42,6.12,14.84,0,6.86-2.6,12.33-7.81,16.41-5.16,4.08-11.74,6.12-19.73,6.12-5.43,0-10.55-.85-15.36-2.54-4.82-1.69-8.88-4.23-12.17-7.62h0ZM660.71,289.42h-11.98c-4.13,0-7.49-3.35-7.49-7.49h-.26c-2.47,3.04-5.38,5.32-8.72,6.84-3.3,1.52-7.01,2.28-11.13,2.28-5.64,0-10.53-1.74-14.65-5.21-4.12-3.52-6.18-8.33-6.18-14.45s1.97-10.92,5.92-14.91c3.95-4.04,9.77-6.47,17.45-7.29l17.71-1.89v-2.02c0-3.26-1.04-5.71-3.12-7.36-2.04-1.65-4.6-2.47-7.68-2.47s-5.79.72-8.14,2.15c-.89.54-1.75,1.19-2.58,1.94-2.4,2.16-6.05,3.1-8.83,1.44l-8.7-5.2c2.39-3.82,6.21-7.2,11.46-10.16,5.25-2.99,11.46-4.49,18.62-4.49,9.2,0,16.21,2.37,21.03,7.1,4.86,4.73,7.29,11.85,7.29,21.35v39.84ZM641.37,262.33v-2.54l-13.28,1.3c-3.08.35-5.34,1.22-6.77,2.6-1.39,1.35-2.08,3.19-2.08,5.53,0,2.08.78,3.82,2.34,5.21,1.56,1.35,3.54,2.02,5.92,2.02,4.08,0,7.4-1.32,9.96-3.97,2.6-2.69,3.91-6.08,3.91-10.16h0ZM676.33,261.03v-14.39h35.61v14.39h-35.61ZM768.85,207.84c-1.35-.91-2.65-1.58-3.91-2.02-1.22-.43-2.45-.65-3.71-.65-2.26,0-3.99.72-5.21,2.15-1.17,1.43-1.76,3.62-1.76,6.58v8.85h15.23v15.17h-15.23v51.5h-5.97c-8.03,0-14.54-6.51-14.54-14.54v-36.96h-11.2v-15.17h11.2v-8.46c0-8.12,2.21-14.32,6.64-18.62,4.43-4.34,10.87-6.51,19.34-6.51,2.99,0,5.84.35,8.53,1.04,2.73.65,5.51,1.69,8.33,3.13l-7.75,14.52ZM788.83,214.03c-3.56,0-6.47-1.09-8.72-3.26-2.26-2.21-3.39-4.95-3.39-8.2s1.13-6.14,3.39-8.27,5.16-3.19,8.72-3.19,6.51,1.06,8.72,3.19c2.26,2.13,3.39,4.88,3.39,8.27s-1.13,6.14-3.39,8.27c-2.21,2.13-5.12,3.19-8.72,3.19h0ZM799.12,289.42h-9.14c-6.31,0-11.43-5.12-11.43-11.43h0v-55.24h8.8c6.5,0,11.78,5.27,11.78,11.78h0v54.89ZM879.78,289.42h-8.92c-6.4,0-11.59-5.19-11.59-11.59t0,0v-26.69c0-4.25-.91-7.64-2.73-10.16-1.82-2.56-4.54-3.84-8.14-3.84s-6.58,1.35-8.92,4.04-3.52,6.1-3.52,10.22v38.02h-20.57v-66.67h13.24c4.05,0,7.34,3.29,7.34,7.34v1.13h.26c2.17-3.04,5.19-5.47,9.05-7.29,3.86-1.87,7.75-2.8,11.65-2.8,7.51,0,13.19,2.34,17.06,7.03,3.86,4.69,5.79,11.31,5.79,19.86v41.41Z" />
  <g
     id="text34"
     class="cls-2">
    <g
       class="cls-2"
       id="g14">
      <path
         class="cls-1"
         d="M691.34,321.39h-.05v1.72h-2.14v-19.74h2.14v8.75h.05c.53-.89,1.18-1.55,1.95-1.99.77-.44,1.66-.66,2.66-.66,1.71,0,3.05.6,4.02,1.79.97,1.19,1.45,2.79,1.45,4.8,0,2.23-.54,4.02-1.63,5.36-1.09,1.34-2.57,2.01-4.45,2.01-.88,0-1.65-.17-2.32-.51-.67-.34-1.23-.85-1.68-1.52ZM691.29,315.8v1.86c0,1.1.36,2.04,1.07,2.81s1.62,1.15,2.73,1.15c1.29,0,2.31-.5,3.04-1.48.73-.99,1.1-2.37,1.1-4.13,0-1.48-.34-2.65-1.03-3.49-.69-.84-1.61-1.26-2.79-1.26-1.24,0-2.24.43-3,1.29-.75.86-1.13,1.95-1.13,3.25Z"
         id="path1" />
      <path
         class="cls-1"
         d="M715.45,309.78l-6.29,15.87c-.5,1.25-1.12,2.18-1.86,2.81-.75.62-1.62.93-2.63.93-.26,0-.5-.02-.72-.05-.22-.03-.43-.07-.62-.12l.42-1.82c.16.05.3.09.44.11.13.02.27.03.4.03.57,0,1.05-.15,1.43-.44.38-.3.68-.71.9-1.25l1.16-2.76-5.21-13.31h2.37l3.61,10.26c.02.06.05.18.1.35.05.17.11.4.18.66h.08c.03-.1.06-.24.1-.4s.09-.36.16-.59l3.79-10.29h2.21Z"
         id="path2" />
      <path
         class="cls-1"
         d="M725.33,323.11v-18.67h5.33c1.61,0,2.89.38,3.83,1.15.94.77,1.41,1.81,1.41,3.12,0,1.06-.29,1.98-.86,2.76-.57.78-1.36,1.34-2.37,1.67v.05c1.26.15,2.27.62,3.02,1.43.75.8,1.13,1.85,1.13,3.13,0,1.6-.57,2.89-1.72,3.88s-2.59,1.48-4.34,1.48h-5.44ZM727.52,306.42v6.03h2.24c1.2,0,2.14-.29,2.83-.87.69-.58,1.03-1.39,1.03-2.44,0-.91-.3-1.59-.9-2.04-.6-.45-1.49-.68-2.67-.68h-2.53ZM727.52,314.41v6.72h2.97c1.28,0,2.28-.3,2.99-.91.71-.61,1.06-1.44,1.06-2.5s-.38-1.93-1.13-2.48-1.88-.83-3.38-.83h-2.51Z"
         id="path3" />
      <path
         class="cls-1"
         d="M753.51,323.11h-2.67l-4.3-7.15c-.07-.11-.14-.25-.21-.4-.07-.15-.14-.33-.22-.53h-.05c-.04.1-.1.23-.18.38-.07.15-.16.33-.27.54l-4.43,7.15h-2.68l6.25-9.39-5.76-9.28h2.68l3.82,6.56c.12.22.24.43.35.65.11.22.22.43.31.65h.05c.14-.29.27-.54.39-.77.12-.23.23-.42.34-.59l3.97-6.51h2.51l-5.87,9.26,5.95,9.41Z"
         id="path4" />
      <path
         class="cls-1"
         d="M762.11,322.11l1.02-1.64c.58.38,1.15.67,1.71.87s1.15.29,1.8.29c.91,0,1.6-.17,2.08-.51.47-.34.71-.85.71-1.52,0-.55-.21-1.01-.63-1.39-.42-.38-1.08-.68-1.97-.91-1.67-.42-2.81-.96-3.42-1.61s-.92-1.44-.92-2.39c0-1.09.41-2.01,1.24-2.74.82-.73,1.97-1.1,3.45-1.1.71,0,1.39.09,2.03.27.64.18,1.3.49,1.97.94l-.95,1.61c-.61-.38-1.15-.65-1.63-.8s-.97-.23-1.46-.23c-.86,0-1.51.16-1.97.47-.45.32-.68.78-.68,1.37s.23,1.05.7,1.35c.46.3,1.21.59,2.25.86,1.35.36,2.37.88,3.04,1.53.67.66,1.01,1.51,1.01,2.57,0,1.23-.44,2.21-1.31,2.92-.87.72-2.07,1.07-3.59,1.07-.82,0-1.6-.11-2.35-.34-.75-.22-1.45-.55-2.09-.98Z"
         id="path5" />
      <path
         class="cls-1"
         d="M793.61,323.11h-2.14v-7.66c0-1.48-.23-2.54-.68-3.2-.46-.66-1.22-.99-2.3-.99-.91,0-1.69.42-2.32,1.25-.64.83-.96,1.83-.96,2.99v7.6h-2.14v-7.92c0-1.31-.25-2.29-.75-2.95-.5-.65-1.26-.98-2.28-.98-.94,0-1.71.39-2.32,1.18-.61.79-.91,1.81-.91,3.07v7.6h-2.14v-13.33h2.14v2.11h.05c.48-.81,1.06-1.41,1.75-1.82.69-.4,1.49-.61,2.39-.61s1.71.25,2.38.76c.68.51,1.14,1.17,1.39,2,.5-.92,1.11-1.61,1.85-2.07.74-.46,1.6-.69,2.58-.69,1.47,0,2.57.45,3.3,1.35.73.9,1.1,2.26,1.1,4.08v8.22Z"
         id="path6" />
      <path
         class="cls-1"
         d="M807.09,323.11h-2.14v-2.08h-.05c-.46.8-1.03,1.4-1.7,1.8-.67.4-1.46.6-2.35.6-1.25,0-2.26-.36-3.03-1.09-.77-.73-1.16-1.7-1.16-2.9,0-1.14.39-2.08,1.17-2.83.78-.75,1.89-1.22,3.32-1.43l3.8-.51v-.3c0-1.12-.26-1.92-.78-2.39-.52-.47-1.21-.71-2.08-.71-.69,0-1.36.13-2,.39-.64.26-1.25.66-1.81,1.2l-1.25-1.29c.75-.72,1.54-1.25,2.38-1.59.84-.34,1.78-.51,2.81-.51,1.62,0,2.83.41,3.65,1.24.82.83,1.22,2.07,1.22,3.73v8.67ZM804.95,317.69v-1.33l-3.22.44c-.98.14-1.72.39-2.21.74-.49.36-.74.92-.74,1.68s.23,1.41.7,1.83c.46.42,1.03.63,1.7.63,1.15,0,2.07-.38,2.75-1.13.68-.76,1.02-1.71,1.02-2.87Z"
         id="path7" />
      <path
         class="cls-1"
         d="M817.79,311.6c-.17-.05-.31-.09-.44-.11-.13-.02-.29-.03-.49-.03-1.09,0-1.94.46-2.57,1.39-.62.92-.94,2.08-.94,3.47v6.8h-2.14v-13.33h2.14v2.64h.05c.3-.94.77-1.65,1.39-2.14.62-.49,1.35-.74,2.16-.74.27,0,.5.01.68.04.19.03.35.06.5.12l-.35,1.9Z"
         id="path9" />
      <path
         class="cls-1"
         d="M826.84,322.95c-.36.15-.72.26-1.07.33s-.75.11-1.19.11c-1.06,0-1.89-.31-2.49-.93-.6-.62-.91-1.54-.91-2.75v-8.11h-2.29v-1.82h2.29v-3.26l2.14-.69v3.95h3.36v1.82h-3.36v7.87c0,.76.14,1.31.41,1.65s.68.51,1.23.51c.26,0,.51-.03.75-.09s.45-.13.61-.21l.52,1.63Z"
         id="path10" />
      <path
         class="cls-1"
         d="M836.83,323.11v-19.74h2.14v19.74h-2.14Z"
         id="path11" />
      <path
         class="cls-1"
         d="M852.73,323.11h-2.14v-2.08h-.05c-.46.8-1.03,1.4-1.7,1.8-.67.4-1.46.6-2.35.6-1.25,0-2.26-.36-3.03-1.09-.77-.73-1.16-1.7-1.16-2.9,0-1.14.39-2.08,1.17-2.83.78-.75,1.89-1.22,3.32-1.43l3.8-.51v-.3c0-1.12-.26-1.92-.78-2.39-.52-.47-1.21-.71-2.08-.71-.69,0-1.36.13-2,.39-.64.26-1.25.66-1.81,1.2l-1.25-1.29c.75-.72,1.54-1.25,2.38-1.59.84-.34,1.78-.51,2.81-.51,1.62,0,2.83.41,3.65,1.24.82.83,1.22,2.07,1.22,3.73v8.67ZM850.59,317.69v-1.33l-3.22.44c-.98.14-1.72.39-2.21.74-.49.36-.74.92-.74,1.68s.23,1.41.7,1.83c.46.42,1.03.63,1.7.63,1.15,0,2.07-.38,2.75-1.13.68-.76,1.02-1.71,1.02-2.87Z"
         id="path12" />
      <path
         class="cls-1"
         d="M859.04,321.39h-.05v1.72h-2.14v-19.74h2.14v8.75h.05c.53-.89,1.18-1.55,1.95-1.99.77-.44,1.66-.66,2.66-.66,1.71,0,3.05.6,4.02,1.79.97,1.19,1.45,2.79,1.45,4.8,0,2.23-.54,4.02-1.63,5.36-1.09,1.34-2.57,2.01-4.45,2.01-.88,0-1.65-.17-2.32-.51-.67-.34-1.23-.85-1.68-1.52ZM858.99,315.8v1.86c0,1.1.36,2.04,1.07,2.81s1.62,1.15,2.73,1.15c1.29,0,2.31-.5,3.04-1.48.73-.99,1.1-2.37,1.1-4.13,0-1.48-.34-2.65-1.03-3.49-.69-.84-1.61-1.26-2.79-1.26-1.24,0-2.24.43-3,1.29-.75.86-1.13,1.95-1.13,3.25Z"
         id="path13" />
      <path
         class="cls-1"
         d="M871.28,322.11l1.02-1.64c.58.38,1.15.67,1.71.87s1.15.29,1.8.29c.91,0,1.6-.17,2.08-.51.47-.34.71-.85.71-1.52,0-.55-.21-1.01-.63-1.39-.42-.38-1.08-.68-1.97-.91-1.67-.42-2.81-.96-3.42-1.61s-.92-1.44-.92-2.39c0-1.09.41-2.01,1.24-2.74.82-.73,1.97-1.1,3.45-1.1.71,0,1.39.09,2.03.27.64.18,1.3.49,1.97.94l-.95,1.61c-.61-.38-1.15-.65-1.63-.8s-.97-.23-1.46-.23c-.86,0-1.51.16-1.97.47-.45.32-.68.78-.68,1.37s.23,1.05.7,1.35c.46.3,1.21.59,2.25.86,1.35.36,2.37.88,3.04,1.53.67.66,1.01,1.51,1.01,2.57,0,1.23-.44,2.21-1.31,2.92-.87.72-2.07,1.07-3.59,1.07-.82,0-1.6-.11-2.35-.34-.75-.22-1.45-.55-2.09-.98Z"
         id="path14" />
    </g>
  </g>
  <path
     class="cls-1"
     d="M289.12,291.02l-6.72-20.59c2.45-1.75,4.13-5.09,4.13-8.57,0-5.06-1.74-8.18-6.05-8.18s-8.26,4.41-8.26,9.47,1.96,8.21,5.87,8.51l-5.32,26.54c-.34,1.7,1.46,3.01,2.97,2.18l12.36-6.81c.91-.5,1.33-1.57,1.01-2.55Z"
     id="path15" />
  <path
     class="cls-1"
     d="M248.89,153.3l-3.7-2.2c-.82-.49-1.67-.97-2.52-1.4-16.91-8.67-36.65,3.01-52.82,31.23l-1.14,1.75-.15.23c-.63,1.04-.33,2.41.67,3.08l1.62,1.1c.2.14.41.26.62.37.76.39,1.57.58,2.39.58,1.84,0,3.69-.95,4.92-2.66,22.25-31.02,31.91-36.62,49.18-28.55l.56.26.48-.38c.16-.13.45-.38.61-.67.54-.96.21-2.19-.72-2.74Z"
     id="path16" />
  <path
     class="cls-1"
     d="M322.92,172.92c-.85-1.42-2.7-1.88-4.12-1.03l-104.53,62.62-104.51-59.51c-1.44-.82-3.27-.32-4.09,1.12-.82,1.44-.32,3.27,1.12,4.09l104.52,59.51v119.4c0,1.66,1.34,3,3,3s3-1.34,3-3v-119.45l104.58-62.65c1.42-.85,1.88-2.69,1.03-4.12Z"
     id="path17" />
</svg>
